<svg width="32" height="31" viewBox="0 0 32 31" fill="none" xmlns="http://www.w3.org/2000/svg">
<path d="M17.6633 28.9995C17.3867 28.9977 17.122 28.8862 16.9275 28.6894C16.733 28.4927 16.6245 28.2268 16.6258 27.9501V23.8583C16.4386 21.7437 14.3314 21.1479 14.2415 21.1237C12.1321 20.5896 10.2669 19.3545 8.95187 17.621C7.6368 15.8875 6.94992 13.7585 7.00394 11.5833C7.00438 10.2139 7.29631 8.86025 7.86032 7.61237C8.42434 6.36449 9.24751 5.25095 10.2751 4.34579C11.2642 3.48266 12.4212 2.83354 13.6733 2.43927C14.9254 2.045 16.2455 1.9141 17.5507 2.05482C18.7068 2.16994 19.826 2.52557 20.8364 3.09888C21.8469 3.67219 22.7263 4.45049 23.4182 5.38381C24.6415 7.04955 25.1868 9.11759 24.9438 11.1699C24.7009 13.2223 23.6878 15.1059 22.1094 16.4399C21.4306 16.9985 20.6443 17.4117 19.7994 17.6541C18.9544 17.8965 18.0686 17.9628 17.1969 17.849C15.4354 17.6839 13.8018 16.8577 12.6249 15.5368C11.7177 14.4139 11.2463 13.0012 11.2974 11.5585C11.3485 10.1159 11.9187 8.7401 12.903 7.68417C13.8039 6.7926 15.0155 6.28528 16.2828 6.26897C17.5502 6.25266 18.7744 6.72863 19.6979 7.59672C20.1086 8.00147 20.4272 8.4901 20.6319 9.02923C20.8365 9.56837 20.9224 10.1453 20.8836 10.7207C20.8438 11.2411 20.6916 11.7467 20.4376 12.2027C20.1836 12.6586 19.8338 13.0541 19.4123 13.3619C19.0245 13.6427 18.5799 13.835 18.1096 13.9252C17.6394 14.0153 17.1552 14.0011 16.691 13.8837C16.3177 13.7764 15.9743 13.5843 15.6876 13.3224C15.4008 13.0605 15.1784 12.7359 15.0379 12.3738C14.9314 12.1169 14.9308 11.8283 15.0362 11.5709C15.1416 11.3135 15.3445 11.1082 15.6006 10.9998C15.727 10.9472 15.8626 10.9202 15.9995 10.9203C16.1364 10.9205 16.2719 10.9478 16.3982 11.0008C16.5244 11.0537 16.6389 11.1312 16.735 11.2288C16.831 11.3263 16.9068 11.4419 16.9578 11.569C16.9784 11.6401 17.0169 11.7047 17.0697 11.7567C17.1225 11.8086 17.1877 11.846 17.2592 11.8654C17.4215 11.8972 17.5885 11.8953 17.75 11.8598C17.9115 11.8242 18.064 11.7559 18.1979 11.6589C18.3755 11.5309 18.5227 11.3652 18.6288 11.1737C18.735 10.9822 18.7976 10.7697 18.812 10.5512C18.8277 10.2786 18.7837 10.0058 18.6829 9.75198C18.5821 9.49817 18.427 9.26946 18.2285 9.08187C17.6953 8.60291 16.9995 8.34531 16.2829 8.36156C15.5663 8.37781 14.8829 8.66668 14.3719 9.16932C13.7557 9.84673 13.4001 10.721 13.3685 11.6361C13.337 12.5513 13.6314 13.448 14.1995 14.1663C15.0322 15.0847 16.1812 15.6543 17.4163 15.7611C18.0052 15.8445 18.6049 15.8066 19.1786 15.6499C19.7524 15.4931 20.288 15.2208 20.7527 14.8496C21.9285 13.8624 22.6856 12.4656 22.8711 10.9416C23.0565 9.41763 22.6564 7.88006 21.7517 6.63972C21.2286 5.93763 20.5643 5.35274 19.8017 4.92263C19.0391 4.49251 18.1949 4.22669 17.3234 4.14224C16.3033 4.03202 15.2713 4.13415 14.2926 4.44221C13.3138 4.75027 12.4094 5.25758 11.6363 5.93222C10.8341 6.63919 10.1916 7.50868 9.75118 8.48298C9.31079 9.45728 9.08267 10.5141 9.08196 11.5833C9.08196 14.4835 10.576 17.9765 14.7676 19.0931C14.9084 19.1286 18.4168 20.0728 18.6994 23.7343L18.7028 23.8153V27.9506C18.7042 28.2273 18.5956 28.4932 18.4011 28.6899C18.2066 28.8866 17.942 28.9982 17.6653 29" fill="#FD2E35"/>
</svg>
