<svg width="64" height="62" viewBox="0 0 64 62" fill="none" xmlns="http://www.w3.org/2000/svg">
<path d="M35.3266 57.999C34.7734 57.9954 34.244 57.7724 33.855 57.3788C33.466 56.9854 33.249 56.4536 33.2516 55.9002V47.7166C32.8772 43.4874 28.6628 42.2958 28.483 42.2474C24.2642 41.1792 20.5338 38.709 17.9037 35.242C15.2736 31.775 13.8998 27.517 14.0079 23.1666C14.0088 20.4278 14.5926 17.7205 15.7206 15.2247C16.8487 12.729 18.495 10.5019 20.5502 8.69158C22.5284 6.96532 24.8424 5.66708 27.3466 4.87854C29.8508 4.09 32.491 3.8282 35.1014 4.10964C37.4136 4.33988 39.652 5.05114 41.6728 6.19776C43.6938 7.34438 45.4526 8.90098 46.8364 10.7676C49.283 14.0991 50.3736 18.2352 49.8876 22.3398C49.4018 26.4446 47.3756 30.2118 44.2188 32.8798C42.8612 33.997 41.2886 34.8234 39.5988 35.3082C37.9088 35.793 36.1372 35.9256 34.3938 35.698C30.8708 35.3678 27.6036 33.7154 25.2498 31.0736C23.4354 28.8278 22.4926 26.0024 22.5948 23.117C22.697 20.2318 23.8374 17.4802 25.806 15.3683C27.6078 13.5852 30.031 12.5706 32.5656 12.5379C35.1004 12.5053 37.5488 13.4573 39.3958 15.1934C40.2172 16.0029 40.8544 16.9802 41.2638 18.0585C41.673 19.1367 41.8448 20.2906 41.7672 21.4414C41.6876 22.4822 41.3832 23.4934 40.8752 24.4054C40.3672 25.3172 39.6676 26.1082 38.8246 26.7238C38.049 27.2854 37.1598 27.67 36.2192 27.8504C35.2788 28.0306 34.3104 28.0022 33.382 27.7674C32.6354 27.5528 31.9486 27.1686 31.3752 26.6448C30.8016 26.121 30.3568 25.4718 30.0758 24.7476C29.8628 24.2338 29.8616 23.6566 30.0724 23.1418C30.2832 22.627 30.689 22.2164 31.2012 21.9996C31.454 21.8944 31.7252 21.8404 31.999 21.8406C32.2728 21.841 32.5438 21.8956 32.7964 22.0016C33.0488 22.1074 33.2778 22.2624 33.47 22.4576C33.662 22.6526 33.8136 22.8838 33.9156 23.138C33.9568 23.2802 34.0338 23.4094 34.1394 23.5134C34.245 23.6172 34.3754 23.692 34.5184 23.7308C34.843 23.7944 35.177 23.7906 35.5 23.7196C35.823 23.6484 36.128 23.5118 36.3958 23.3178C36.751 23.0618 37.0454 22.7304 37.2576 22.3474C37.47 21.9644 37.5952 21.5394 37.624 21.1024C37.6554 20.5572 37.5674 20.0116 37.3658 19.504C37.1642 18.9963 36.854 18.5389 36.457 18.1637C35.3906 17.2058 33.999 16.6906 32.5658 16.7231C31.1326 16.7556 29.7658 17.3334 28.7438 18.3386C27.5114 19.6935 26.8002 21.442 26.737 23.2722C26.674 25.1026 27.2628 26.896 28.399 28.3326C30.0644 30.1694 32.3624 31.3086 34.8326 31.5222C36.0104 31.689 37.2098 31.6132 38.3572 31.2998C39.5048 30.9862 40.576 30.4416 41.5054 29.6992C43.857 27.7248 45.3712 24.9312 45.7422 21.8832C46.113 18.8353 45.3128 15.7601 43.5034 13.2794C42.4572 11.8753 41.1286 10.7055 39.6034 9.84526C38.0782 8.98502 36.3898 8.45338 34.6468 8.28448C32.6066 8.06404 30.5426 8.2683 28.5852 8.88442C26.6276 9.50054 24.8188 10.5152 23.2726 11.8644C21.6682 13.2784 20.3832 15.0174 19.5024 16.966C18.6216 18.9146 18.1653 21.0282 18.1639 23.1666C18.1639 28.967 21.152 35.953 29.5352 38.1862C29.8168 38.2572 36.8336 40.1456 37.3988 47.4686L37.4056 47.6306V55.9012C37.4084 56.4546 37.1912 56.9864 36.8022 57.3798C36.4132 57.7732 35.884 57.9964 35.3306 58" fill="white"/>
</svg>
